{
	"asset":{
		"generator":"Khronos glTF Blender I/O v4.2.60",
		"version":"2.0"
	},
	"scene":0,
	"scenes":[
		{
			"name":"Scene",
			"nodes":[
				0,
				1,
				2
			]
		}
	],
	"nodes":[
		{
			"mesh":0,
			"name":"tank",
			"scale":[
				1,
				1.3119028806686401,
				1
			]
		},
		{
			"mesh":1,
			"name":"Circle",
			"translation":[
				0,
				0.7614895701408386,
				0
			]
		},
		{
			"mesh":2,
			"name":"Text.001",
			"rotation":[
				0.7155734300613403,
				0.024888524785637856,
				-0.025038855150341988,
				0.6976448893547058
			],
			"scale":[
				0.15492090582847595,
				0.15492090582847595,
				0.15492090582847595
			],
			"translation":[
				-0.5949475169181824,
				0.6371118426322937,
				1.0855463743209839
			]
		}
	],
	"materials":[
		{
			"doubleSided":true,
			"name":"Metal",
			"pbrMetallicRoughness":{
				"baseColorFactor":[
					0.42824310064315796,
					0.6474207043647766,
					0.8002121448516846,
					1
				],
				"roughnessFactor":0.2064896821975708
			}
		},
		{
			"doubleSided":true,
			"name":"White",
			"pbrMetallicRoughness":{
				"baseColorFactor":[
					1,
					1,
					1,
					1
				],
				"metallicFactor":1,
				"roughnessFactor":1
			}
		},
		{
			"doubleSided":true,
			"name":"Material",
			"pbrMetallicRoughness":{
				"baseColorFactor":[
					0.3943891227245331,
					0.023199664428830147,
					0.023199664428830147,
					1
				],
				"metallicFactor":0.10868942737579346,
				"roughnessFactor":0.35840708017349243
			}
		}
	],
	"meshes":[
		{
			"name":"Cylinder",
			"primitives":[
				{
					"attributes":{
						"POSITION":0,
						"NORMAL":1,
						"TEXCOORD_0":2
					},
					"indices":3,
					"material":0
				}
			]
		},
		{
			"name":"Circle",
			"primitives":[
				{
					"attributes":{
						"POSITION":4,
						"NORMAL":5,
						"TEXCOORD_0":6
					},
					"indices":7,
					"material":1
				}
			]
		},
		{
			"name":"Text.002",
			"primitives":[
				{
					"attributes":{
						"POSITION":8,
						"NORMAL":9,
						"TEXCOORD_0":10
					},
					"indices":11,
					"material":2
				}
			]
		}
	],
	"accessors":[
		{
			"bufferView":0,
			"componentType":5126,
			"count":4104,
			"max":[
				1,
				2.008892059326172,
				1
			],
			"min":[
				-1,
				-1.4285002946853638,
				-1
			],
			"type":"VEC3"
		},
		{
			"bufferView":1,
			"componentType":5126,
			"count":4104,
			"type":"VEC3"
		},
		{
			"bufferView":2,
			"componentType":5126,
			"count":4104,
			"type":"VEC2"
		},
		{
			"bufferView":3,
			"componentType":5123,
			"count":7320,
			"type":"SCALAR"
		},
		{
			"bufferView":4,
			"componentType":5126,
			"count":384,
			"max":[
				1.0230512619018555,
				0,
				1.0230512619018555
			],
			"min":[
				-1.0230512619018555,
				-0.136422798037529,
				-1.0230512619018555
			],
			"type":"VEC3"
		},
		{
			"bufferView":5,
			"componentType":5126,
			"count":384,
			"type":"VEC3"
		},
		{
			"bufferView":6,
			"componentType":5126,
			"count":384,
			"type":"VEC2"
		},
		{
			"bufferView":7,
			"componentType":5123,
			"count":768,
			"type":"SCALAR"
		},
		{
			"bufferView":8,
			"componentType":5126,
			"count":665,
			"max":[
				7.549375534057617,
				-0.07110786437988281,
				0.02895909547805786
			],
			"min":[
				0.6657838821411133,
				-1.1400513648986816,
				-0.6869238018989563
			],
			"type":"VEC3"
		},
		{
			"bufferView":9,
			"componentType":5126,
			"count":665,
			"type":"VEC3"
		},
		{
			"bufferView":10,
			"componentType":5126,
			"count":665,
			"type":"VEC2"
		},
		{
			"bufferView":11,
			"componentType":5123,
			"count":1074,
			"type":"SCALAR"
		}
	],
	"bufferViews":[
		{
			"buffer":0,
			"byteLength":49248,
			"byteOffset":0,
			"target":34962
		},
		{
			"buffer":0,
			"byteLength":49248,
			"byteOffset":49248,
			"target":34962
		},
		{
			"buffer":0,
			"byteLength":32832,
			"byteOffset":98496,
			"target":34962
		},
		{
			"buffer":0,
			"byteLength":14640,
			"byteOffset":131328,
			"target":34963
		},
		{
			"buffer":0,
			"byteLength":4608,
			"byteOffset":145968,
			"target":34962
		},
		{
			"buffer":0,
			"byteLength":4608,
			"byteOffset":150576,
			"target":34962
		},
		{
			"buffer":0,
			"byteLength":3072,
			"byteOffset":155184,
			"target":34962
		},
		{
			"buffer":0,
			"byteLength":1536,
			"byteOffset":158256,
			"target":34963
		},
		{
			"buffer":0,
			"byteLength":7980,
			"byteOffset":159792,
			"target":34962
		},
		{
			"buffer":0,
			"byteLength":7980,
			"byteOffset":167772,
			"target":34962
		},
		{
			"buffer":0,
			"byteLength":5320,
			"byteOffset":175752,
			"target":34962
		},
		{
			"buffer":0,
			"byteLength":2148,
			"byteOffset":181072,
			"target":34963
		}
	],
	"buffers":[
		{
			"byteLength":183220,
			"uri":"tank.bin"
		}
	]
}
